<svg xmlns="http://www.w3.org/2000/svg" viewBox="0 0 64 64">
  <defs>
    <linearGradient id="g" x1="0" y1="0" x2="1" y2="1">
      <stop offset="0" stop-color="#FF6B35"/>
      <stop offset="1" stop-color="#e55a2b"/>
    </linearGradient>
  </defs>
  <rect width="64" height="64" rx="14" fill="url(#g)"/>
  <path fill="#fff" d="M32 16a4 4 0 0 1 4 4v1.3a11 11 0 0 1 3.2 1.3l1-1a4 4 0 0 1 5.6 5.6l-1 1a11 11 0 0 1 1.3 3.2H47a4 4 0 0 1 0 8h-1.3a11 11 0 0 1-1.3 3.2l1 1a4 4 0 0 1-5.6 5.6l-1-1a11 11 0 0 1-3.2 1.3V49a4 4 0 0 1-8 0v-1.3a11 11 0 0 1-3.2-1.3l-1 1a4 4 0 1 1-5.6-5.6l1-1A11 11 0 0 1 17.3 37H16a4 4 0 0 1 0-8h1.3a11 11 0 0 1 1.3-3.2l-1-1a4 4 0 0 1 5.6-5.6l1 1A11 11 0 0 1 28 21.3V20a4 4 0 0 1 4-4zm0 12a4 4 0 1 0 0 8 4 4 0 0 0 0-8z"/>
</svg>
