<svg xmlns="http://www.w3.org/2000/svg" viewBox="0 0 64 64">
  <defs>
    <linearGradient id="g" x1="0" y1="0" x2="1" y2="1">
      <stop offset="0" stop-color="#FF6B35"/>
      <stop offset="1" stop-color="#e55a2b"/>
    </linearGradient>
  </defs>
  <rect width="64" height="64" rx="14" fill="url(#g)"/>
  <path fill="#fff" transform="translate(8, 18) scale(0.1509)" d="M317,52 L290,13 L292,3 L287,9 L287,0 L278,8 L260,2 L253,3 L262,6 L245,8 L228,0 L237,12 L217,11 L204,15 L195,14 L219,22 L194,25 L188,28 L202,29 L190,35 L173,32 L184,40 L196,43 L193,45 L172,46 L134,38 L122,38 L110,41 L95,50 L69,48 L53,54 L62,54 L46,61 L26,60 L38,66 L32,69 L13,67 L0,58 L6,70 L19,79 L6,77 L15,84 L36,86 L51,81 L44,89 L36,92 L43,92 L56,86 L69,68 L65,84 L80,62 L85,59 L90,60 L87,67 L88,82 L93,91 L115,112 L109,135 L149,161 L148,172 L161,178 L160,168 L153,153 L135,141 L127,132 L141,99 L141,85 L135,69 L145,83 L146,99 L175,112 L202,115 L223,142 L220,145 L196,148 L192,142 L188,142 L178,148 L186,153 L205,157 L230,151 L234,145 L228,124 L210,118 L205,105 L206,96 L213,115 L252,124 L256,128 L256,136 L249,149 L249,155 L240,157 L240,172 L248,168 L260,154 L266,131 L263,117 L231,102 L243,102 L248,94 L246,60 L250,49 L259,38 L251,58 L251,77 L262,56 L270,48 L268,44 L270,35 L276,48 L290,52 L288,53 L296,57 L302,65 L313,63 Z M144,104 L144,106 L143,107 L143,109 L140,115 L137,120 L134,123 L133,125 L133,130 L135,136 L136,136 L141,140 L142,140 L151,146 L157,152 L161,160 L164,167 L165,172 L168,173 L170,175 L170,181 L171,183 L177,185 L186,185 L186,183 L183,178 L177,173 L174,170 L172,166 L154,148 L151,144 L148,139 L146,133 L146,111 L145,106 Z"/>
</svg>
